Guadalcanal/Leckie – Directly following the attack on Pearl Harbor, Seargent John Basilone ships out to fight the enemy somewhere in the Pacific, and a young journalist called Robert Leckie enlists in the Marine Corps. Sidney Phillips ships off to boot camp after saying farewell to his friend Eugene Sledge, who cannot go with him due to a heart murmur. Eight months later, Phillips and Leckie, having completed boot camp are sent to secure a airfield on Guadalcanal, and to help defend it against counterattack.

Format                          : Matroska
File size                        : 1.46 GiB
Duration                        : 54mn 51s
Overall bit rate                : 3 805 Kbps
Encoded date                    : UTC 2010-03-15 03:38:47
Writing application              : mkvmerge v2.4.0 ('Fumbling Towards Ecstasy') built on Nov  7 2008 17:24:23
Writing library                  : libebml v0.7.8 + libmatroska v0.8.1

Video
ID                              : 1
Format                          : AVC
Format/Info                      : Advanced Video Codec
Format profile                  : High@L4.1
Format settings, CABAC          : Yes
Format settings, ReFrames        : 5 frames
Muxing mode                      : Container profile=Unknown@4.1
Codec ID                        : V_MPEG4/ISO/AVC
Duration                        : 54mn 48s
Bit rate                        : 3 345 Kbps
Nominal bit rate                : 3 417 Kbps
Width                            : 1 280 pixels
Height                          : 720 pixels
Display aspect ratio            : 16:9
Frame rate                      : 23.976 fps
Resolution                      : 8 bits
Colorimetry                      : 4:2:0
Scan type                        : Progressive
Bits/(Pixel*Frame)              : 0.151
Stream size                      : 1.28 GiB (88%)
Writing library                  : x264 core 88 r1471 1144615
Encoding settings                : cabac=1 / ref=5 / deblock=1:0:0 / analyse=0x3:0x113 / me=umh / subme=8 / psy=1 / psy_rd=1.00:0.00 / mixed_ref=0 / me_range=16 / chroma_me=1 / trellis=1 / 8x8dct=1 / cqm=0 / deadzone=21,11 / fast_pskip=1 / chroma_qp_offset=-2 / threads=20 / sliced_threads=0 / nr=0 / decimate=1 / mbaff=0 / constrained_intra=0 / bframes=3 / b_pyramid=2 / b_adapt=1 / b_bias=0 / direct=1 / wpredb=1 / wpredp=2 / keyint=250 / keyint_min=25 / scenecut=40 / intra_refresh=0 / rc=2pass / mbtree=0 / bitrate=3417 / ratetol=1.0 / qcomp=0.60 / qpmin=10 / qpmax=51 / qpstep=4 / cplxblur=20.0 / qblur=0.5 / ip_ratio=1.40 / pb_ratio=1.30 / aq=1:1.00
Language                        : English

Audio
ID                              : 2
Format                          : AC-3
Format/Info                      : Audio Coding 3
Codec ID                        : A_AC3
Duration                        : 54mn 51s
Bit rate mode                    : Constant
Bit rate                        : 384 Kbps
Channel(s)                      : 6 channels
Channel positions                : Front: L C R, Surround: L R, LFE
Sampling rate                    : 48.0 KHz
Stream size                      : 151 MiB (10%)
